<?xml version="1.0" standalone="no"?>
<!DOCTYPE svg PUBLIC "-//W3C//DTD SVG 20010904//EN"
 "http://www.w3.org/TR/2001/REC-SVG-20010904/DTD/svg10.dtd">
<svg version="1.0" xmlns="http://www.w3.org/2000/svg"
 width="600.000000pt" height="600.000000pt" viewBox="0 0 600.000000 600.000000"
 preserveAspectRatio="xMidYMid meet">
<metadata>
Created by potrace 1.16, written by Peter Selinger 2001-2019
</metadata>
<g transform="translate(0.000000,600.000000) scale(0.100000,-0.100000)"
fill="#000000" stroke="none">
<path d="M2747 5830 c-48 -4 -93 -12 -100 -19 -6 -6 -44 -11 -90 -11 -74 0
-81 -2 -117 -32 -22 -18 -40 -40 -40 -48 0 -9 -11 -32 -25 -52 -14 -20 -25
-45 -25 -55 0 -11 -20 -41 -45 -68 -25 -28 -48 -61 -52 -75 -3 -14 -10 -30
-15 -36 -5 -7 -8 -16 -7 -20 1 -5 1 -44 0 -86 -1 -76 -2 -78 -26 -78 -39 0
-40 -24 -7 -93 36 -73 63 -100 114 -116 20 -7 42 -19 48 -27 7 -7 19 -14 26
-14 12 0 14 -42 14 -237 0 -131 -4 -243 -8 -249 -4 -6 -21 -19 -39 -29 -17
-10 -37 -30 -43 -44 -7 -14 -19 -40 -27 -58 -9 -18 -13 -42 -9 -56 3 -14 -1
-63 -10 -109 -10 -53 -14 -106 -10 -148 9 -99 22 -164 35 -168 6 -2 11 -9 11
-15 0 -6 9 -20 20 -32 12 -12 22 -42 26 -71 5 -46 61 -223 73 -234 13 -11 81
-129 81 -139 0 -6 -4 -11 -9 -11 -14 0 -91 -79 -91 -93 0 -16 -59 -82 -85 -95
-11 -5 -35 -12 -53 -16 -19 -3 -61 -23 -95 -43 -64 -39 -69 -43 -115 -81 -15
-13 -55 -40 -88 -60 -62 -37 -175 -132 -157 -132 5 0 22 14 39 31 16 17 37 35
46 40 16 9 17 7 7 -18 -6 -15 -7 -24 -3 -20 4 4 15 -11 25 -33 10 -22 24 -39
31 -38 7 2 12 -5 12 -14 -1 -12 5 -18 18 -18 10 0 16 -4 13 -10 -5 -9 78 -121
96 -128 4 -2 6 -9 3 -17 -3 -7 3 -16 13 -19 10 -4 38 -31 63 -61 25 -29 51
-54 58 -54 6 -1 12 -8 12 -16 0 -8 7 -15 15 -15 8 0 15 -4 15 -8 0 -5 16 -16
35 -25 19 -9 35 -21 35 -27 0 -5 7 -10 15 -10 8 0 19 -9 25 -20 6 -11 18 -20
28 -20 18 0 74 -39 58 -40 -6 0 -1 -7 10 -15 16 -12 17 -16 4 -24 -8 -6 -11
-13 -7 -17 3 -4 13 -2 20 4 10 9 21 4 45 -21 18 -18 29 -37 25 -42 -5 -4 -3
-5 3 -2 7 4 14 0 18 -8 3 -8 15 -15 26 -15 17 0 20 -4 15 -21 -5 -14 0 -27 14
-40 11 -11 24 -31 27 -44 3 -14 12 -25 20 -25 7 0 16 -11 20 -25 3 -14 15 -30
25 -36 11 -5 19 -16 19 -24 0 -8 9 -20 21 -28 15 -11 17 -16 7 -20 -10 -4 -10
-6 0 -6 6 -1 12 -8 12 -17 0 -12 -7 -15 -25 -12 -30 6 -34 -8 -4 -17 13 -5 17
-10 11 -18 -17 -22 -23 -65 -9 -70 9 -3 9 -8 -2 -21 -15 -18 -7 -36 10 -19 10
10 16 32 18 61 1 17 31 15 31 -2 0 -8 -7 -21 -15 -30 -17 -17 -20 -46 -5 -46
6 0 10 -4 10 -10 0 -5 -7 -7 -16 -3 -12 4 -15 2 -12 -8 8 -23 33 -16 36 11 2
13 10 33 17 43 7 10 11 27 8 38 -3 10 0 19 6 19 6 0 11 17 11 40 0 22 6 50 13
62 13 24 94 135 112 154 5 6 28 32 50 59 22 26 46 53 54 59 43 35 190 188 215
224 17 23 36 42 43 42 7 0 13 6 13 13 0 17 42 57 59 57 7 0 11 6 8 13 -3 7 4
19 14 25 12 8 19 8 19 2 0 -5 5 -10 11 -10 6 0 9 7 5 15 -3 9 3 24 14 35 11
11 20 24 20 28 0 4 9 8 20 9 11 1 27 8 35 15 35 32 43 35 72 31 17 -3 34 0 37
6 4 6 2 11 -4 11 -6 0 -8 5 -5 10 3 5 15 10 26 10 10 0 19 5 19 10 0 6 11 15
24 21 27 13 100 112 109 150 4 14 14 43 24 65 9 21 16 47 14 57 -1 11 4 17 16
17 14 0 15 2 4 9 -23 15 -2 75 27 79 18 3 22 8 17 25 -5 20 -5 20 5 4 8 -12
18 -16 31 -12 14 5 17 3 13 -9 -3 -9 -12 -16 -20 -16 -8 0 -14 -9 -14 -19 0
-15 5 -18 23 -14 20 4 20 3 4 -7 -15 -9 -22 -8 -38 6 -10 9 -19 12 -19 7 0 -6
7 -16 15 -23 8 -7 13 -16 10 -20 -3 -5 -1 -11 5 -15 5 -3 10 -12 10 -18 0 -8
-3 -8 -9 1 -6 10 -10 9 -14 -7 -3 -12 -12 -21 -21 -21 -9 0 -16 -4 -16 -10 0
-5 14 -7 33 -4 l32 6 -25 -21 c-14 -11 -31 -21 -37 -21 -7 0 -13 -7 -13 -15 0
-8 6 -12 14 -9 8 3 17 0 22 -7 4 -8 3 -10 -4 -5 -7 4 -12 1 -12 -9 0 -12 -6
-15 -20 -10 -14 5 -20 2 -20 -9 0 -9 5 -16 10 -16 6 0 10 -7 10 -16 0 -12 -6
-15 -24 -10 -21 5 -23 3 -19 -15 4 -13 11 -18 21 -14 13 5 12 2 -2 -14 -10
-11 -23 -18 -29 -14 -6 4 -7 -4 -3 -21 5 -22 3 -26 -14 -26 -16 0 -20 -7 -20
-30 0 -16 -4 -30 -9 -30 -15 0 -71 -53 -71 -67 0 -7 -4 -13 -9 -13 -5 0 -13
-9 -16 -20 -3 -11 -13 -20 -21 -20 -8 0 -14 -4 -14 -9 0 -5 -12 -12 -27 -16
-19 -4 -23 -9 -14 -14 17 -11 -4 -26 -34 -26 -13 0 -20 -7 -20 -20 0 -14 -8
-21 -28 -23 -22 -3 -27 -7 -22 -23 8 -24 -10 -25 -24 -2 -11 19 -11 21 -15
-37 -1 -9 -9 -14 -20 -12 -11 2 -20 -4 -23 -17 -3 -11 -15 -21 -27 -23 -11 -2
-21 -9 -21 -17 0 -8 -6 -16 -12 -18 -7 -3 -13 1 -13 7 0 7 -6 6 -15 -4 -8 -8
-15 -19 -15 -24 0 -5 -9 -12 -21 -15 -12 -3 -18 -10 -15 -16 4 -5 1 -13 -5
-17 -6 -3 -15 -1 -19 7 -6 9 -10 6 -15 -13 -4 -17 -15 -28 -28 -30 -12 -2 -23
-9 -23 -15 -3 -24 -4 -25 -18 -14 -12 10 -15 7 -18 -16 -2 -20 -9 -28 -22 -28
-11 0 -21 -6 -24 -13 -2 -6 -15 -12 -28 -12 -13 0 -24 -4 -24 -10 0 -5 5 -10
11 -10 5 0 7 -5 4 -10 -4 -6 -15 -8 -25 -5 -10 3 -21 1 -25 -5 -3 -5 -1 -10 5
-10 6 0 8 -4 5 -10 -3 -5 -15 -10 -26 -10 -10 0 -19 -7 -19 -15 0 -8 -9 -15
-20 -15 -17 0 -19 -5 -14 -25 5 -18 2 -25 -9 -25 -8 0 -18 6 -20 13 -3 6 -6 0
-6 -15 -1 -23 4 -28 34 -34 41 -7 54 -22 33 -38 -8 -6 -17 -19 -21 -28 -3 -10
-17 -19 -29 -19 -17 -1 -18 -2 -5 -6 22 -6 21 -11 -3 -51 -11 -18 -19 -38 -17
-45 1 -6 -4 -11 -11 -9 -8 1 -11 -2 -7 -8 10 -17 -5 -91 -17 -83 -7 3 -8 1 -4
-6 12 -19 -4 -91 -20 -91 -9 0 -12 -4 -9 -10 3 -5 14 -10 24 -10 14 0 21 17
36 87 22 108 32 136 45 128 6 -4 7 6 4 25 -4 17 -2 30 4 30 5 0 12 9 15 20 3
11 9 19 14 18 4 -1 18 6 30 17 17 14 20 22 12 32 -13 15 -4 47 11 38 5 -3 10
1 10 9 0 10 20 21 57 32 32 9 63 24 69 32 6 8 22 16 35 18 13 1 27 3 32 3 4 1
7 8 7 16 0 8 5 15 11 15 11 0 112 79 117 93 2 4 11 2 19 -5 14 -11 15 -10 10
7 -5 16 0 23 26 34 17 8 34 17 37 20 13 16 96 52 131 57 30 5 39 11 39 27 0
18 2 17 21 -7 11 -14 24 -24 29 -21 14 9 11 -183 -4 -225 -11 -33 -11 -41 2
-53 8 -9 16 -35 18 -59 1 -24 5 -72 9 -108 3 -36 8 -87 10 -115 2 -27 7 -66
10 -85 3 -19 12 -84 21 -145 9 -60 18 -121 21 -135 2 -14 6 -40 7 -58 2 -18 6
-35 10 -39 3 -3 3 -17 0 -30 -4 -14 1 -33 11 -49 10 -15 15 -38 13 -55 -3 -16
-1 -29 4 -29 4 0 8 -7 8 -15 0 -8 -4 -15 -10 -15 -5 0 -10 -5 -10 -11 0 -6 7
-9 15 -5 9 3 15 0 15 -10 0 -19 -27 -29 -43 -15 -10 8 -19 7 -33 -5 -10 -8
-13 -13 -6 -9 17 9 52 -4 52 -18 0 -7 11 -21 25 -31 27 -21 32 -45 13 -65 -10
-11 -10 -14 0 -18 17 -6 15 -23 -3 -23 -8 0 -15 4 -15 10 0 15 -33 50 -42 44
-13 -9 -9 -24 7 -24 8 0 15 -4 15 -10 0 -5 -6 -10 -12 -10 -17 1 -58 35 -58
49 0 6 -4 11 -10 11 -17 0 -11 -10 25 -45 22 -20 32 -36 25 -40 -13 -8 -42 14
-34 26 3 5 1 9 -5 9 -5 0 -13 -4 -16 -10 -9 -15 -41 -12 -55 5 -10 12 -15 13
-20 4 -9 -13 -50 5 -50 23 0 7 -5 7 -14 -2 -12 -9 -18 -7 -32 9 -10 11 -22 17
-27 14 -5 -3 -19 -1 -30 5 -12 5 -42 16 -67 23 -25 7 -54 17 -65 23 -11 5 -32
9 -48 7 -16 -1 -29 3 -33 12 -3 8 -14 12 -28 10 -12 -3 -28 2 -34 10 -7 8 -21
13 -31 10 -9 -2 -23 3 -30 11 -8 9 -24 16 -37 16 -13 0 -24 5 -24 10 0 6 -7
10 -17 10 -22 0 -93 32 -93 42 0 4 -9 8 -19 8 -11 0 -26 7 -35 15 -8 8 -23 15
-34 15 -11 0 -22 6 -25 13 -3 8 -27 12 -76 12 l-71 0 0 40 c0 45 27 236 35
243 2 3 11 -1 20 -8 9 -7 15 -8 15 -2 0 6 -6 13 -12 15 -9 4 -5 12 12 26 20
17 22 21 8 21 -10 0 -18 8 -19 18 0 10 -7 3 -15 -17 -8 -18 -24 -35 -34 -38
-11 -3 -18 -9 -15 -13 3 -5 -5 -12 -17 -16 l-23 -7 25 -9 25 -10 -22 -9 c-27
-10 -30 -29 -5 -29 16 -1 16 -1 0 -14 -10 -7 -18 -16 -18 -19 0 -3 8 -8 18
-10 15 -4 15 -5 -2 -6 -16 -1 -17 -3 -5 -17 11 -14 9 -19 -11 -35 l-25 -19 23
0 c13 0 22 -6 22 -16 0 -8 -5 -12 -11 -9 -5 4 -18 1 -27 -7 -9 -8 -30 -20 -45
-28 -24 -12 -32 -12 -50 -1 -14 9 -22 10 -25 3 -2 -7 -12 -8 -25 -3 -12 4 -47
7 -77 6 -30 -2 -59 0 -65 4 -5 3 -33 6 -60 6 -28 1 -55 3 -60 6 -6 3 -47 5
-93 4 -45 -1 -84 1 -86 4 -2 3 -67 6 -143 5 l-138 -1 11 106 c23 207 61 384
103 486 5 11 32 81 59 155 65 172 119 302 130 309 12 8 24 61 15 61 -5 0 -28
19 -52 41 -42 38 -46 40 -58 23 -7 -10 -13 -21 -13 -26 0 -4 -14 -37 -30 -73
-17 -37 -28 -70 -25 -75 3 -5 -6 -30 -20 -55 -13 -26 -27 -63 -31 -83 -4 -21
-20 -73 -35 -117 -16 -44 -29 -92 -29 -107 0 -15 -7 -33 -15 -42 -8 -8 -15
-24 -15 -35 0 -12 -5 -21 -12 -21 -6 0 -3 -6 7 -14 17 -12 18 -17 7 -40 -7
-15 -17 -24 -22 -21 -6 3 -10 -1 -10 -10 0 -9 5 -13 10 -10 6 4 10 -8 10 -28
0 -23 -6 -37 -16 -41 -11 -4 -13 -10 -7 -19 10 -13 9 -149 -2 -166 -10 -18
-25 -12 -25 9 0 11 -4 20 -8 20 -5 0 -14 25 -21 55 -7 30 -19 61 -26 69 -8 8
-13 29 -12 47 3 31 0 34 -25 36 -15 1 -28 -2 -28 -8 0 -5 6 -9 13 -7 7 2 14
-1 15 -7 1 -5 -6 -10 -16 -10 -9 0 -17 -7 -17 -15 0 -14 -7 -16 -35 -11 -21 3
-60 131 -60 199 0 30 -51 92 -76 92 -7 0 -14 7 -14 15 0 8 -6 15 -13 15 -8 0
-18 10 -24 22 -10 23 -10 23 -25 -7 -8 -17 -21 -66 -27 -110 -7 -44 -23 -116
-36 -160 -30 -101 -39 -144 -28 -127 7 9 16 4 38 -18 16 -16 37 -30 47 -30 10
0 21 -7 24 -15 4 -8 14 -15 23 -15 18 0 22 -25 7 -48 -4 -6 -3 -12 3 -12 6 0
13 11 17 25 4 15 11 22 17 18 7 -4 20 -8 30 -8 10 -1 22 -7 26 -14 4 -6 15 -9
23 -6 10 4 22 -2 30 -14 8 -12 18 -18 21 -15 4 4 8 1 10 -7 2 -8 12 -38 22
-67 9 -29 15 -55 13 -58 -9 -8 -38 8 -38 20 0 7 -10 12 -22 12 -17 -1 -24 6
-28 29 -4 24 -7 26 -12 13 -4 -10 -17 -18 -28 -18 -24 0 -27 20 -2 21 14 0 14
2 -3 8 -12 5 -26 4 -34 -3 -11 -9 -13 -7 -6 13 6 20 4 23 -9 18 -10 -4 -16 -1
-16 8 0 24 -17 17 -24 -10 -6 -22 -9 -24 -26 -15 -25 13 -26 47 -2 53 13 4 11
5 -5 6 -14 1 -23 -5 -23 -14 0 -20 -39 -20 -46 0 -4 8 -12 15 -19 15 -17 0
-26 40 -19 79 4 17 4 31 1 31 -9 0 -28 -130 -38 -255 -11 -147 -18 -317 -12
-292 3 12 10 16 20 13 8 -3 19 -6 24 -6 6 0 8 -4 5 -9 -4 -5 -2 -20 3 -33 9
-22 10 -22 10 6 1 31 13 29 18 -2 1 -10 7 -29 12 -43 8 -19 10 -20 10 -5 1 12
6 16 16 12 8 -3 22 -9 30 -12 9 -4 17 1 21 10 8 21 24 21 24 0 0 -9 9 -18 20
-21 11 -3 20 -10 20 -15 0 -6 9 -8 19 -5 12 3 22 -1 25 -9 3 -8 17 -14 30 -14
32 0 98 -39 89 -53 -4 -7 0 -8 12 -4 9 4 24 2 31 -4 7 -6 18 -8 24 -4 5 3 10
2 10 -4 0 -6 12 -14 28 -17 42 -10 44 -13 19 -37 -12 -12 -18 -19 -13 -14 15
11 28 8 20 -4 -3 -6 -1 -15 6 -19 9 -6 9 -12 -1 -31 -11 -22 -11 -23 4 -11 19
16 137 25 137 11 0 -6 8 -5 21 1 15 9 24 8 35 -1 10 -8 14 -8 14 0 0 15 37 14
43 -1 3 -10 7 -10 20 1 14 11 20 11 34 0 13 -11 17 -11 20 -1 7 18 40 15 48
-6 6 -16 7 -16 16 1 11 18 39 24 39 7 0 -5 7 -10 15 -10 8 0 15 5 15 10 0 14
37 13 42 -1 3 -8 10 -8 26 2 16 10 24 11 33 2 9 -9 15 -8 26 3 11 11 19 11 35
3 16 -9 23 -8 29 2 7 12 12 12 30 1 17 -11 23 -11 29 -2 5 8 18 10 32 7 14 -4
28 -4 32 0 11 11 105 12 112 1 4 -6 10 -5 15 3 6 9 9 -3 9 -33 0 -43 -2 -48
-22 -48 -21 -1 -21 -2 -5 -11 21 -12 23 -33 2 -25 -8 3 -15 1 -15 -4 0 -6 10
-10 22 -10 20 0 21 -1 6 -16 -16 -16 -37 -18 -283 -28 -44 -1 -90 -6 -102 -10
-12 -4 -24 -2 -28 3 -4 7 -14 6 -31 -1 -20 -10 -27 -9 -35 3 -8 11 -12 11 -16
2 -6 -16 -53 -17 -53 -2 0 8 -5 7 -15 -1 -18 -15 -85 -20 -102 -7 -7 5 -20 3
-32 -5 -16 -10 -23 -10 -33 0 -8 8 -15 9 -25 1 -9 -8 -17 -8 -27 0 -10 9 -16
9 -21 1 -4 -6 -14 -9 -22 -6 -8 3 -29 -1 -48 -8 -18 -8 -35 -13 -37 -11 -2 2
-24 5 -48 6 -25 2 -48 7 -52 13 -6 8 -11 7 -17 -3 -5 -8 -11 -9 -14 -3 -4 5
-22 8 -42 6 -19 -1 -37 1 -40 5 -5 9 -122 7 -131 -2 -3 -3 21 -11 53 -17 32
-7 83 -19 113 -27 30 -8 83 -21 118 -30 46 -12 61 -20 57 -31 -3 -7 -5 -22 -5
-32 0 -21 -38 -34 -57 -18 -11 8 -12 7 -7 -6 4 -9 1 -16 -6 -16 -10 0 -10 -3
0 -15 10 -12 7 -15 -14 -21 -25 -6 -38 -34 -16 -34 6 0 10 5 10 10 0 6 4 10
10 10 5 0 6 -8 3 -17 -6 -16 -5 -16 10 -5 18 15 41 7 31 -10 -5 -7 -2 -9 8 -5
12 4 14 1 11 -13 -7 -26 -33 -47 -41 -34 -4 6 -15 14 -25 17 -14 5 -20 2 -24
-13 -6 -22 -23 -26 -41 -8 -6 6 -15 8 -19 3 -5 -4 -2 -10 5 -12 18 -7 4 -23
-19 -23 -17 0 -19 -4 -13 -22 4 -13 14 -28 23 -35 10 -8 12 -12 4 -13 -7 0
-13 -7 -13 -15 0 -13 122 -15 1040 -15 1033 0 1040 0 1041 20 2 35 4 40 12 40
4 0 10 0 13 0 4 0 2 -6 -3 -12 -6 -7 -10 -21 -10 -30 0 -17 39 -18 678 -18
665 0 678 0 692 20 24 35 131 63 286 75 41 3 77 7 80 9 3 2 24 7 46 10 100 16
151 41 106 53 -11 3 -18 9 -15 14 3 5 -8 9 -23 9 -16 0 -35 6 -42 12 -11 10
-14 10 -18 1 -3 -7 -17 -13 -33 -13 -16 0 -41 -5 -56 -10 -18 -7 -30 -7 -39 0
-9 8 -15 8 -20 1 -3 -6 -34 -10 -68 -10 -34 1 -75 -3 -90 -10 -33 -13 -48 -14
-28 -2 17 11 6 29 -23 41 -18 8 -17 9 11 9 17 1 35 6 38 12 4 5 17 9 28 8 12
-2 32 3 44 9 13 7 34 10 48 6 15 -4 25 -2 25 5 0 6 15 11 33 11 18 0 38 5 43
10 7 7 19 7 36 1 19 -7 27 -5 36 10 10 15 17 17 38 9 33 -13 34 -13 34 4 0 18
25 28 54 20 14 -3 27 1 35 10 8 9 28 16 47 16 18 0 36 5 40 11 3 6 18 9 33 6
16 -3 33 1 43 10 19 17 68 7 76 -15 2 -8 -3 -10 -14 -5 -11 4 -15 2 -12 -8 2
-7 31 -20 64 -28 32 -8 60 -16 62 -17 2 -1 -4 -13 -12 -26 -16 -25 -13 -88 4
-88 5 0 6 10 3 21 -4 16 -2 20 8 17 8 -3 13 -12 11 -21 -1 -8 2 -18 8 -22 17
-10 11 -25 -9 -25 -15 0 -19 -6 -17 -23 1 -13 5 -28 9 -34 4 -7 -2 -10 -18 -9
-14 0 -25 5 -25 9 0 5 -6 7 -12 4 -7 -2 -32 2 -55 8 -24 7 -43 11 -43 8 0 -3
-6 -1 -13 5 -8 7 -18 7 -27 1 -12 -7 -13 -11 -2 -18 12 -7 12 -12 1 -30 -8
-11 -21 -21 -31 -21 -20 0 -36 -20 -16 -20 7 0 4 -6 -6 -12 -15 -8 -21 -8 -24
0 -5 17 -19 15 -19 -3 0 -13 26 -15 174 -15 l173 0 0 245 c0 168 -4 252 -12
270 -9 21 -9 28 1 34 10 6 6 15 -13 34 -14 14 -26 31 -26 37 0 7 -14 44 -30
83 -17 40 -40 95 -52 122 -12 28 -31 73 -43 100 -48 105 -75 173 -75 184 0 7
-9 29 -19 49 -43 82 -81 171 -81 188 0 11 -7 32 -15 48 -8 15 -15 35 -15 42 0
8 -4 14 -10 14 -5 0 -10 7 -10 15 0 9 -11 33 -25 55 -14 22 -25 48 -25 59 0
10 -7 24 -14 31 -8 6 -22 35 -32 63 -9 29 -20 57 -24 62 -3 6 -13 30 -20 55
-8 25 -24 61 -35 80 -12 19 -25 49 -29 65 -9 37 -55 134 -74 157 -11 13 -19
14 -37 6 -17 -7 -30 -6 -54 6 -17 9 -31 12 -31 6 0 -5 7 -10 15 -10 8 0 15 -4
15 -10 0 -5 8 -10 18 -10 19 0 42 -18 42 -33 0 -5 -11 -2 -25 7 -27 18 -60 23
-35 5 11 -8 12 -12 3 -16 -17 -6 -16 -20 1 -26 10 -4 13 -1 9 9 -3 7 0 14 6
14 6 0 11 -5 11 -11 0 -5 4 -8 9 -4 5 3 12 1 16 -5 3 -5 1 -10 -5 -10 -7 0 -9
-7 -6 -16 5 -12 1 -14 -17 -9 -12 4 -26 11 -31 16 -12 11 -26 12 -26 1 0 -5
23 -18 50 -30 28 -12 50 -27 50 -33 0 -5 4 -8 9 -4 5 3 12 1 16 -5 8 -13 -11
-13 -36 1 -11 6 -25 9 -32 6 -7 -2 16 -16 51 -32 59 -27 84 -49 42 -38 -15 4
-19 2 -14 -10 3 -9 11 -14 19 -11 7 3 15 -2 19 -11 5 -13 1 -15 -15 -10 -15 5
-19 4 -15 -4 4 -6 16 -11 26 -11 10 0 22 -5 25 -11 13 -20 -5 -23 -40 -6 -39
19 -65 22 -65 8 0 -4 19 -14 43 -20 23 -7 53 -21 67 -33 18 -14 20 -18 7 -14
-11 3 -31 9 -45 12 -15 4 -33 11 -39 17 -9 6 -13 6 -13 -1 0 -17 23 -29 67
-37 24 -4 46 -11 49 -17 11 -18 -5 -21 -39 -5 -18 9 -48 19 -67 22 -18 3 -37
8 -42 11 -5 3 -6 -6 -2 -20 5 -22 3 -26 -17 -27 -18 -1 -16 -3 11 -10 57 -15
91 -19 85 -9 -3 5 -19 12 -36 15 -19 4 -27 11 -22 16 5 5 29 2 59 -8 29 -10
42 -19 32 -21 -33 -7 -19 -32 21 -38 29 -5 38 -10 34 -21 -3 -8 -12 -12 -20
-9 -7 3 -16 -1 -19 -9 -4 -9 -14 -13 -28 -10 -36 9 -96 12 -96 4 0 -3 18 -9
40 -13 61 -10 38 -26 -28 -19 -31 3 -59 6 -62 7 -3 0 -6 -3 -7 -9 -1 -5 9 -9
22 -7 12 2 26 -1 29 -7 4 -6 14 -7 24 -4 15 6 15 4 4 -10 -8 -8 -20 -13 -28
-10 -9 3 -14 -2 -14 -15 0 -23 -28 -36 -54 -26 -11 4 -16 1 -16 -10 0 -19 -33
-38 -53 -31 -7 3 -20 -1 -27 -10 -7 -8 -21 -15 -32 -15 -11 0 -31 -9 -45 -19
-13 -11 -31 -17 -39 -14 -8 3 -14 -1 -14 -10 0 -8 -9 -17 -20 -20 -23 -6 -37
8 -15 16 10 4 12 16 8 41 -3 22 -2 36 5 36 5 0 12 8 16 18 3 9 9 23 12 31 4 8
2 11 -4 8 -18 -12 -22 47 -4 66 16 18 15 18 -11 12 -17 -5 -27 -3 -27 4 0 6
10 11 23 11 12 0 28 4 35 9 26 16 -17 22 -53 7 -18 -8 -36 -12 -39 -8 -3 3 -6
0 -6 -6 0 -7 7 -12 17 -12 15 0 15 -2 -1 -19 -13 -15 -14 -20 -4 -24 9 -3 7
-10 -9 -21 -13 -10 -20 -23 -17 -31 4 -9 0 -15 -9 -15 -17 0 -32 -18 -23 -27
3 -3 12 0 21 7 8 7 15 9 15 5 0 -13 -34 -34 -53 -35 -10 0 -16 -4 -12 -10 3
-5 12 -7 20 -3 29 11 14 -15 -15 -27 -35 -14 -41 -34 -7 -26 12 3 4 -3 -18
-14 -38 -18 -38 -19 -12 -20 15 0 27 -4 27 -10 0 -5 -9 -10 -21 -10 -15 0 -19
-5 -15 -15 3 -8 -4 -21 -17 -30 -13 -9 -18 -18 -12 -23 13 -9 16 -42 4 -42 -5
0 -9 7 -9 15 0 8 -7 15 -15 15 -8 0 -15 -4 -15 -10 0 -5 5 -10 12 -10 9 0 9
-3 1 -11 -6 -6 -9 -17 -6 -25 3 -8 -7 -15 -31 -20 -20 -3 -40 -12 -44 -19 -4
-7 -29 -15 -55 -19 l-48 -7 7 28 c12 55 37 129 66 190 15 34 28 68 28 76 0 8
7 18 16 21 8 3 13 10 10 15 -3 5 1 22 9 37 19 37 19 64 0 64 -8 0 -15 -9 -15
-20 0 -11 -7 -20 -16 -20 -8 0 -12 -5 -9 -11 4 -6 -1 -17 -11 -24 -12 -9 -14
-14 -6 -15 7 0 11 -4 7 -10 -3 -5 -13 -6 -21 -3 -13 5 -15 1 -9 -15 4 -16 2
-22 -8 -22 -10 0 -13 -7 -10 -19 3 -12 -2 -20 -16 -24 -24 -6 -41 -39 -23 -45
21 -7 13 -20 -8 -15 -25 7 -26 -12 -2 -26 16 -10 16 -10 -2 -11 -14 0 -16 -3
-7 -14 9 -11 7 -15 -11 -19 -12 -4 -24 -4 -27 -1 -3 3 -6 106 -6 229 -1 124
-4 228 -8 231 -4 4 -3 12 2 18 5 6 3 33 -5 64 -8 30 -12 57 -10 61 3 4 0 27
-6 52 -14 63 -16 113 -4 122 8 5 8 9 0 15 -17 11 -25 67 -11 81 8 8 8 11 -2
11 -10 0 -12 23 -8 108 3 59 8 130 12 157 3 28 10 88 15 134 14 127 60 301 78
301 22 0 -14 32 -65 59 -23 11 -63 43 -91 70 -28 27 -67 61 -89 75 -78 51 -97
71 -90 97 4 14 16 36 27 49 48 55 16 132 -78 186 -26 15 -50 33 -54 39 -4 7
-29 20 -55 30 -54 20 -176 98 -195 124 -7 9 -31 25 -53 35 -22 10 -41 20 -43
21 -2 2 4 17 13 34 16 32 29 39 40 21 9 -14 85 -12 111 3 40 23 124 101 148
137 13 20 38 70 55 109 29 67 31 82 31 186 l0 114 -35 28 -35 29 19 75 c39
150 79 269 112 331 5 10 9 25 9 33 0 8 5 15 11 15 8 0 10 23 5 78 -5 59 -3 84
9 106 8 15 15 37 15 47 0 10 5 21 11 25 22 13 -21 168 -52 187 -10 6 -19 17
-19 22 0 13 -85 85 -100 85 -6 0 -24 21 -40 47 -17 26 -37 51 -45 56 -8 4 -15
14 -15 21 0 31 -173 176 -210 176 -10 0 -28 9 -41 19 -14 10 -54 31 -89 46
-36 14 -87 38 -115 52 -60 31 -216 89 -305 113 -41 11 -101 18 -163 18 -86 0
-101 3 -121 21 -24 23 -46 24 -209 11z m326 -694 c11 -5 17 -20 17 -40 1 -25
2 -28 11 -14 11 19 39 13 39 -8 0 -8 7 -14 15 -14 8 0 15 -4 15 -9 0 -4 12
-21 28 -36 15 -16 20 -25 12 -20 -17 10 7 -20 58 -72 17 -19 32 -37 32 -42 0
-5 11 -6 25 -3 14 2 25 11 25 20 0 15 1 15 16 0 19 -19 10 -62 -12 -54 -17 6
-19 -10 -3 -20 8 -4 7 -9 -2 -15 -11 -7 -10 -9 4 -9 18 0 22 -10 9 -25 -4 -6
-6 -9 -4 -8 2 1 14 -8 26 -20 26 -26 40 -68 23 -66 -24 3 -37 -1 -37 -12 0 -5
5 -7 10 -4 6 4 10 -8 11 -27 0 -18 3 -27 6 -20 5 14 23 16 23 3 0 -5 -7 -17
-16 -25 -8 -9 -13 -16 -10 -16 14 0 -33 -37 -54 -43 -17 -4 -20 -3 -11 6 17
17 13 26 -9 20 -11 -3 -20 -12 -20 -19 0 -8 -10 -14 -25 -14 -14 0 -25 4 -25
8 0 4 -18 8 -39 8 -22 0 -38 -3 -35 -8 3 -4 -16 -17 -41 -29 -25 -12 -51 -31
-57 -43 -14 -26 -17 -134 -3 -140 6 -3 -22 -2 -61 1 -68 5 -71 5 -92 -22 -12
-15 -19 -31 -16 -36 3 -5 0 -9 -7 -9 -17 0 -1 71 19 86 9 7 20 10 24 8 4 -3
12 12 17 33 12 43 11 123 -1 123 -4 0 -8 8 -8 18 0 42 -64 73 -160 78 -36 2
-66 4 -67 5 -2 1 -6 2 -10 3 -43 9 -69 20 -75 29 -6 9 -8 9 -8 0 0 -7 -7 -13
-15 -13 -8 0 -15 -4 -15 -10 0 -5 -11 -10 -23 -10 -31 0 -61 -33 -54 -60 3
-11 1 -20 -5 -20 -5 0 -6 -5 -2 -11 4 -7 12 -2 23 13 15 23 51 28 51 7 0 -5 8
-10 18 -10 16 -1 16 -2 0 -6 -9 -2 -26 1 -37 7 -12 6 -21 7 -21 2 0 -17 29
-34 52 -31 13 2 28 1 33 -2 6 -4 35 -12 65 -19 156 -34 219 -70 207 -117 -4
-15 -5 -15 -6 3 -2 34 -42 61 -121 84 -153 42 -330 61 -370 40 -21 -11 -35
-55 -45 -132 -5 -42 -9 -48 -30 -48 -26 0 -58 26 -52 44 2 6 19 11 38 11 34 0
34 0 34 45 0 38 5 49 30 71 17 14 37 28 45 31 10 3 21 30 29 69 7 34 26 89 42
121 16 31 29 63 29 69 0 12 40 99 50 109 3 3 5 10 5 15 1 26 18 75 26 75 5 0
9 6 9 13 0 15 60 57 82 57 8 0 28 11 43 24 16 14 48 35 72 47 57 29 213 45
256 25z m-782 -905 c-15 -94 -13 -151 4 -181 l15 -25 -7 30 c-12 44 -6 112 14
183 24 84 33 81 48 -13 4 -25 3 -35 -3 -27 -6 9 -12 6 -20 -13 -15 -32 -15
-65 -2 -99 14 -37 26 -32 34 15 l6 40 26 -30 c14 -16 33 -33 43 -36 11 -3 26
-20 34 -38 11 -22 30 -39 58 -51 30 -13 38 -21 28 -27 -8 -5 -11 -9 -6 -9 4 0
-14 -38 -39 -85 -31 -57 -43 -90 -37 -98 5 -6 7 -25 4 -42 l-6 -29 -22 28
c-13 16 -21 31 -19 35 2 3 -8 15 -23 25 -14 11 -23 16 -19 11 4 -4 3 -14 -3
-22 -9 -10 -6 -19 14 -39 14 -14 23 -32 21 -39 -3 -8 6 -21 21 -31 22 -15 30
-15 47 -5 11 7 21 11 21 9 13 -26 26 -43 37 -46 7 -3 10 0 6 6 -9 15 19 68 41
76 12 5 23 0 35 -16 30 -39 52 -60 56 -50 1 4 28 -4 60 -20 59 -28 102 -36
102 -17 0 6 5 7 13 2 6 -4 17 -8 22 -9 6 -1 23 -7 40 -14 23 -9 26 -13 15 -20
-21 -13 -67 -12 -76 1 -3 6 -24 9 -45 7 -22 -2 -39 0 -39 3 0 6 -20 15 -75 36
-5 3 1 -5 15 -17 95 -83 108 -100 70 -100 -11 0 -20 -4 -20 -9 0 -10 91 -51
113 -51 8 0 17 -7 21 -15 3 -8 0 -15 -7 -15 -22 0 17 -20 40 -20 16 0 21 -6
20 -20 -1 -11 -6 -19 -12 -17 -6 3 -10 -11 -10 -32 0 -34 -2 -36 -30 -33 -68
7 -106 4 -127 -10 -43 -28 -70 -29 -113 -4 -38 23 -105 102 -105 125 0 6 -4
11 -9 11 -5 0 -13 9 -16 20 -4 11 -11 17 -17 14 -6 -4 -9 -1 -6 7 3 8 -9 26
-26 41 -24 21 -27 28 -13 28 9 0 17 -5 17 -12 0 -6 3 -9 6 -5 9 9 -9 32 -25
32 -14 0 -41 41 -77 115 -9 19 -20 43 -25 52 -5 10 -14 49 -20 88 -9 55 -19
78 -41 102 -15 17 -30 40 -32 52 -15 78 -26 164 -22 181 2 11 9 60 16 108 7
48 14 86 17 83 3 -2 0 -36 -6 -75z m702 22 c-5 -12 -3 -14 8 -8 11 7 12 6 3
-6 -6 -8 -10 -31 -9 -51 1 -21 -2 -38 -7 -38 -5 0 -7 -3 -4 -8 11 -18 17 -139
7 -164 -14 -37 -111 -79 -135 -58 -6 4 -29 11 -51 15 l-40 7 39 -40 c22 -23
43 -39 47 -36 4 2 10 0 14 -6 3 -5 -3 -15 -15 -22 -11 -7 -20 -15 -20 -19 0
-10 77 -49 98 -49 24 0 38 16 20 23 -8 3 -8 6 -2 6 6 1 19 -7 28 -18 16 -18
15 -19 -27 -25 -25 -4 -55 -5 -68 -2 -13 3 -40 8 -59 10 -19 3 -51 10 -70 16
-19 5 -57 10 -85 11 -43 0 -47 2 -31 12 40 26 61 46 54 52 -3 4 -16 1 -28 -5
-12 -6 -28 -9 -36 -6 -12 5 -11 12 8 39 18 28 31 36 72 43 l51 9 -3 36 c-3 33
1 41 37 70 23 18 55 55 73 83 63 102 83 128 103 136 30 13 35 12 28 -7z m-271
-532 c3 8 9 9 19 4 8 -5 24 -8 36 -7 11 2 24 -2 28 -8 4 -6 20 -8 39 -4 24 4
38 1 51 -12 11 -12 29 -17 49 -16 41 4 76 -29 56 -53 -13 -16 -64 -13 -83 5
-5 4 -25 4 -44 0 -23 -6 -42 -4 -55 3 -15 10 -21 9 -28 -3 -6 -10 -10 -11 -10
-3 0 7 -12 16 -27 19 -40 9 -72 41 -66 65 4 14 9 17 18 9 9 -8 14 -7 17 1z
m-55 -508 c8 -13 20 -20 26 -16 6 3 7 1 3 -5 -3 -6 0 -14 8 -19 8 -4 16 -12
18 -18 2 -5 6 -9 9 -8 13 4 149 -135 137 -140 -9 -4 -8 -6 3 -6 16 -1 18 -22
4 -54 -15 -37 -88 21 -128 101 l-18 37 6 -33 c11 -55 53 -147 66 -144 9 2 9
-1 -1 -12 -7 -10 -8 -16 -2 -16 6 0 20 -16 32 -35 12 -19 28 -35 36 -35 8 0
14 -10 14 -24 0 -27 -26 -41 -54 -30 -18 7 -20 -4 -6 -41 5 -14 6 -24 1 -21
-5 4 -11 1 -13 -5 -6 -19 -72 71 -91 125 -10 28 -19 56 -21 61 -1 6 -9 26 -18
45 -31 73 -61 189 -72 283 l-12 99 29 -34 c16 -18 36 -43 44 -55z m1557 -355
c5 -21 2 -28 -15 -33 -16 -6 -18 -10 -9 -18 9 -9 14 -9 17 0 2 7 11 9 20 6 12
-5 14 -1 8 16 -4 13 -1 27 9 36 17 17 36 20 36 5 0 -5 -5 -9 -11 -7 -6 1 -12
-14 -14 -33 -2 -19 -1 -27 2 -17 2 9 10 17 18 17 7 0 18 7 25 15 9 10 17 12
30 5 9 -5 20 -6 24 -3 9 10 7 -28 -5 -69 -5 -21 -15 -38 -22 -38 -8 0 -8 -3 2
-9 9 -6 12 -22 8 -52 -2 -24 -14 -132 -26 -239 -12 -107 -24 -229 -27 -270
-11 -170 -13 -198 -18 -259 -3 -36 -9 -67 -14 -70 -4 -3 -9 -26 -11 -51 -4
-51 -8 -63 -22 -55 -5 4 -9 -19 -9 -54 0 -53 2 -60 18 -54 14 5 13 3 -3 -10
-11 -9 -15 -17 -9 -17 17 0 23 -58 7 -64 -7 -3 -13 -15 -13 -26 0 -11 -5 -20
-12 -20 -9 0 -9 -3 0 -12 20 -20 14 -36 -13 -30 -20 3 -23 7 -15 23 7 12 7 20
0 24 -8 5 -8 11 -1 19 6 7 8 16 4 19 -10 10 -35 -31 -27 -45 4 -6 3 -8 -3 -5
-6 4 -13 -5 -16 -21 -6 -33 -1 -42 23 -42 12 0 17 -5 14 -13 -3 -8 -17 -11
-38 -9 -27 3 -34 1 -33 -15 0 -37 -3 -43 -23 -43 -11 0 -19 5 -17 11 1 6 -4
14 -11 16 -10 4 -12 -7 -10 -43 3 -45 5 -49 27 -46 16 3 22 -1 19 -10 -3 -7
-12 -12 -21 -10 -11 2 -17 -9 -22 -38 -4 -24 -12 -39 -18 -37 -7 2 -13 9 -13
15 -3 24 -4 26 -16 14 -8 -8 -12 -38 -10 -85 1 -48 -1 -65 -7 -52 -15 35 -61
266 -55 276 3 6 1 16 -5 23 -13 16 -22 66 -51 276 -23 163 -33 445 -24 623 l7
118 49 67 c27 37 55 75 63 84 8 10 26 36 41 58 15 22 31 40 36 40 5 0 12 8 15
18 14 37 128 202 140 202 7 0 13 8 13 17 0 22 6 14 14 -19z m1420 -1819 c8 -9
2 -10 -26 -6 -21 3 -38 2 -38 -4 0 -5 12 -10 28 -11 48 -2 52 -3 52 -11 0 -4
0 -11 0 -16 0 -5 -16 -5 -37 0 -23 5 -42 4 -47 -1 -6 -6 -8 -10 -5 -11 69 -10
107 -8 112 5 4 9 14 12 26 9 12 -3 18 -10 15 -15 -3 -5 -12 -7 -20 -4 -8 3
-14 1 -14 -4 0 -6 5 -10 10 -10 6 0 10 -4 10 -10 0 -5 -9 -10 -20 -10 -11 0
-20 -7 -20 -15 0 -10 -10 -15 -29 -15 -17 0 -31 -6 -35 -16 -4 -9 -15 -14 -29
-12 -13 1 -32 -5 -41 -15 -10 -9 -27 -17 -38 -17 -11 0 -26 -7 -33 -16 -6 -9
-25 -17 -42 -18 -16 -1 -38 -7 -46 -15 -10 -8 -27 -11 -41 -7 -18 4 -25 1 -29
-14 -5 -20 -47 -29 -47 -10 0 6 7 10 15 10 8 0 15 5 15 11 0 6 -7 9 -15 5 -8
-3 -15 -1 -15 4 0 5 12 13 26 16 30 8 69 42 59 52 -4 4 -13 -2 -21 -13 -15
-20 -74 -31 -74 -14 0 9 22 13 48 10 6 -1 12 4 12 12 0 9 -14 14 -44 15 -43 2
-67 -10 -46 -23 18 -11 11 -27 -9 -20 -20 6 -40 -13 -24 -24 15 -10 14 -51 -2
-45 -16 7 -29 -12 -14 -21 7 -5 3 -15 -12 -31 -23 -25 -49 -32 -49 -14 0 6 10
10 22 10 18 0 20 2 9 13 -10 10 -18 5 -41 -22 -24 -28 -34 -33 -60 -29 -17 3
-33 1 -35 -3 -8 -11 -105 23 -105 37 0 7 5 14 12 16 21 7 0 41 -22 35 -11 -3
-25 2 -32 10 -11 14 -10 15 10 9 16 -5 22 -3 22 7 0 18 24 29 45 21 10 -4 15
0 15 11 0 13 9 16 43 14 23 -1 50 2 60 6 9 4 28 4 41 1 17 -4 28 -1 34 10 7
12 19 15 41 12 23 -3 32 0 37 14 6 19 11 21 94 18 43 -1 52 1 43 11 -6 6 -23
12 -37 12 -14 0 -26 3 -26 8 0 5 13 9 30 9 20 0 33 7 41 21 7 13 17 19 29 16
11 -3 26 3 36 15 10 10 27 18 38 17 36 -2 46 1 44 13 -2 6 6 14 17 16 16 3 18
1 8 -9 -24 -24 -13 -28 12 -5 14 13 25 29 25 36 0 16 68 7 84 -11z m-2798
-444 c9 -14 21 -22 26 -19 5 3 16 -3 24 -15 8 -12 22 -21 29 -21 8 0 20 -9 27
-20 7 -11 21 -20 30 -20 10 0 18 -5 18 -10 0 -6 10 -15 23 -21 33 -15 67 -35
80 -48 6 -6 19 -11 28 -11 10 0 20 -9 24 -19 4 -12 12 -17 24 -14 9 2 23 -3
30 -11 8 -9 24 -16 37 -16 13 0 29 -9 36 -19 9 -15 16 -17 30 -10 13 7 21 5
30 -10 9 -15 19 -19 36 -14 16 4 28 -1 41 -15 14 -17 20 -19 30 -9 10 9 16 8
29 -8 9 -11 28 -20 42 -20 14 0 25 -5 25 -12 0 -6 3 -15 8 -19 4 -4 7 -2 7 4
0 19 39 14 51 -7 8 -11 19 -16 32 -13 16 4 18 1 12 -17 -5 -16 0 -29 19 -48
33 -33 35 -56 4 -44 -13 5 -22 16 -22 25 1 9 -3 13 -8 10 -5 -3 -7 -13 -3 -22
3 -8 0 -19 -7 -24 -21 -13 -48 -9 -48 7 0 8 -7 15 -15 15 -19 0 -19 -14 0 -33
12 -13 12 -16 -7 -20 -23 -6 -58 8 -58 24 0 5 -11 7 -24 3 -38 -9 -41 15 -4
31 24 10 27 14 13 15 -11 0 -30 -7 -42 -15 -23 -16 -73 -11 -73 7 0 6 -6 8
-14 5 -7 -3 -26 1 -41 9 -15 8 -35 14 -45 14 -10 0 -26 7 -34 16 -9 8 -21 12
-27 9 -6 -4 -21 3 -35 16 -13 12 -24 19 -24 15 0 -10 -73 35 -83 51 -4 7 -15
13 -23 13 -8 0 -17 7 -20 15 -4 8 -12 15 -19 15 -6 0 -20 9 -30 20 -10 11 -22
20 -27 20 -5 0 -28 18 -50 40 -23 22 -46 40 -51 40 -6 0 -21 12 -34 26 -18 19
-30 24 -46 19 -12 -4 -31 -7 -42 -6 -10 0 -25 -5 -32 -11 -7 -6 -13 -7 -14 -2
-1 13 3 85 6 114 2 14 4 30 4 36 2 19 29 24 56 12 21 -9 29 -9 43 5 22 23 29
21 48 -8z"/>
<path d="M1751 2628 c-17 -29 -45 -96 -63 -148 -27 -83 -32 -114 -37 -240 -7
-160 1 -358 15 -382 6 -10 10 41 10 135 3 225 37 400 111 555 34 73 36 99 8
122 -11 9 -20 1 -44 -42z"/>
</g>
</svg>
